<?xml version="1.0" encoding="UTF-8"?>
<svg xmlns="http://www.w3.org/2000/svg" viewBox="0 0 300 450" width="300" height="450">
  <defs>
    <linearGradient id="grad_hindswaraj" x1="0%" y1="0%" x2="100%" y2="100%">
      <stop offset="0%"   stop-color="#1B5E20" />
      <stop offset="100%" stop-color="#004D40" />
    </linearGradient>
  </defs>
  <rect width="300" height="450" fill="url(#grad_hindswaraj)" rx="6" ry="6" />
  <rect width="300" height="80" fill="white" opacity="0.06" rx="6" ry="6" />
  <!-- Spinning wheel (charkha) simple outline -->
  <g opacity="0.18" stroke="#A5D6A7" stroke-width="1.5" fill="none" transform="translate(150, 110)">
    <circle cx="0" cy="0" r="55" />
    <circle cx="0" cy="0" r="10" />
    <line x1="0" y1="-55" x2="0" y2="55" />
    <line x1="-55" y1="0" x2="55" y2="0" />
    <line x1="-39" y1="-39" x2="39" y2="39" />
    <line x1="39" y1="-39" x2="-39" y2="39" />
    <line x1="-21" y1="-51" x2="21" y2="51" />
    <line x1="21" y1="-51" x2="-21" y2="51" />
    <line x1="-51" y1="-21" x2="51" y2="21" />
    <line x1="-51" y1="21" x2="51" y2="-21" />
  </g>
  <rect x="12" y="12" width="276" height="426" fill="none" stroke="#66BB6A" stroke-width="1.5" rx="4" ry="4" opacity="0.7" />
  <rect x="18" y="18" width="264" height="414" fill="none" stroke="#A5D6A7" stroke-width="0.6" rx="3" ry="3" opacity="0.4" />
  <line x1="36" y1="190" x2="264" y2="190" stroke="#A5D6A7" stroke-width="0.8" opacity="0.5" />
  <text x="150" y="220" text-anchor="middle" font-family="Georgia, 'Times New Roman', serif" font-size="26" font-weight="bold" fill="white" letter-spacing="0.5"><tspan x="150" dy="0">Hind Swaraj</tspan></text>
  <line x1="36" y1="246" x2="264" y2="246" stroke="#A5D6A7" stroke-width="0.8" opacity="0.5" />
  <text x="150" y="270" text-anchor="middle" font-family="Arial, Helvetica, sans-serif" font-size="15" fill="#A5D6A7" letter-spacing="0.3"><tspan x="150" dy="0">M.K. Gandhi</tspan></text>
  <!-- Headphone icon -->
  <g transform="translate(35, 395) scale(0.7)" opacity="0.4" fill="white">
    <path d="M12 3C6.48 3 2 7.48 2 13v4c0 1.1.9 2 2 2h2v-7H4.06C4.56 8.07 7.92 5 12 5s7.44 3.07 7.94 7H18v7h2c1.1 0 2-.9 2-2v-4c0-5.52-4.48-10-10-10z"/>
    <rect x="3" y="13" width="3" height="6" rx="1"/>
    <rect x="18" y="13" width="3" height="6" rx="1"/>
  </g>
  <rect x="90" y="410" width="120" height="22" rx="11" ry="11" fill="white" opacity="0.15" />
  <text x="150" y="425" text-anchor="middle" font-family="Arial, Helvetica, sans-serif" font-size="11" fill="white" opacity="0.9" letter-spacing="1">AUDIOBOOK</text>
  <circle cx="30" cy="30" r="3" fill="#A5D6A7" opacity="0.5" />
  <circle cx="270" cy="30" r="3" fill="#A5D6A7" opacity="0.5" />
  <circle cx="30" cy="420" r="3" fill="#A5D6A7" opacity="0.5" />
  <circle cx="270" cy="420" r="3" fill="#A5D6A7" opacity="0.5" />
</svg>