<?xml version="1.0" encoding="UTF-8"?>
<svg xmlns="http://www.w3.org/2000/svg" viewBox="0 0 300 450" width="300" height="450">
  <defs>
    <linearGradient id="grad_bhagavadgita" x1="0%" y1="0%" x2="100%" y2="100%">
      <stop offset="0%"   stop-color="#F57F17" />
      <stop offset="100%" stop-color="#E65100" />
    </linearGradient>
  </defs>
  <rect width="300" height="450" fill="url(#grad_bhagavadgita)" rx="6" ry="6" />
  <rect width="300" height="80" fill="white" opacity="0.06" rx="6" ry="6" />
  <!-- Arrow and bow outline -->
  <g opacity="0.18" stroke="#FFD54F" stroke-width="1.5" fill="none" transform="translate(150, 110)">
    <!-- Bow (arc) -->
    <path d="M-10,-60 Q-55,0 -10,60" stroke-width="2" />
    <!-- Bowstring -->
    <line x1="-10" y1="-60" x2="-10" y2="60" />
    <!-- Arrow shaft -->
    <line x1="-10" y1="0" x2="60" y2="0" stroke-width="1.5" />
    <!-- Arrowhead -->
    <polygon points="60,0 50,-6 50,6" fill="#FFD54F" stroke="none" opacity="1" />
    <!-- Arrow fletching -->
    <line x1="-5" y1="-5" x2="-15" y2="-10" />
    <line x1="-5" y1="5" x2="-15" y2="10" />
  </g>
  <rect x="12" y="12" width="276" height="426" fill="none" stroke="#FFB300" stroke-width="1.5" rx="4" ry="4" opacity="0.7" />
  <rect x="18" y="18" width="264" height="414" fill="none" stroke="#FFD54F" stroke-width="0.6" rx="3" ry="3" opacity="0.4" />
  <line x1="36" y1="190" x2="264" y2="190" stroke="#FFD54F" stroke-width="0.8" opacity="0.5" />
  <text x="150" y="220" text-anchor="middle" font-family="Georgia, 'Times New Roman', serif" font-size="26" font-weight="bold" fill="white" letter-spacing="0.5"><tspan x="150" dy="0">Bhagavad Gita</tspan></text>
  <line x1="36" y1="246" x2="264" y2="246" stroke="#FFD54F" stroke-width="0.8" opacity="0.5" />
  <text x="150" y="270" text-anchor="middle" font-family="Arial, Helvetica, sans-serif" font-size="15" fill="#FFD54F" letter-spacing="0.3"><tspan x="150" dy="0">trans. Sir Edwin Arnold</tspan></text>
  <!-- Headphone icon -->
  <g transform="translate(35, 395) scale(0.7)" opacity="0.4" fill="white">
    <path d="M12 3C6.48 3 2 7.48 2 13v4c0 1.1.9 2 2 2h2v-7H4.06C4.56 8.07 7.92 5 12 5s7.44 3.07 7.94 7H18v7h2c1.1 0 2-.9 2-2v-4c0-5.52-4.48-10-10-10z"/>
    <rect x="3" y="13" width="3" height="6" rx="1"/>
    <rect x="18" y="13" width="3" height="6" rx="1"/>
  </g>
  <rect x="90" y="410" width="120" height="22" rx="11" ry="11" fill="white" opacity="0.15" />
  <text x="150" y="425" text-anchor="middle" font-family="Arial, Helvetica, sans-serif" font-size="11" fill="white" opacity="0.9" letter-spacing="1">AUDIOBOOK</text>
  <circle cx="30" cy="30" r="3" fill="#FFD54F" opacity="0.5" />
  <circle cx="270" cy="30" r="3" fill="#FFD54F" opacity="0.5" />
  <circle cx="30" cy="420" r="3" fill="#FFD54F" opacity="0.5" />
  <circle cx="270" cy="420" r="3" fill="#FFD54F" opacity="0.5" />
</svg>