<?xml version="1.0" encoding="UTF-8"?>
<svg xmlns="http://www.w3.org/2000/svg" viewBox="0 0 300 450" width="300" height="450">
  <defs>
    <linearGradient id="grad_yogi" x1="0%" y1="0%" x2="100%" y2="100%">
      <stop offset="0%"   stop-color="#4A148C" />
      <stop offset="100%" stop-color="#880E4F" />
    </linearGradient>
  </defs>
  <rect width="300" height="450" fill="url(#grad_yogi)" rx="6" ry="6" />
  <rect width="300" height="80" fill="white" opacity="0.06" rx="6" ry="6" />
  <!-- Sun rays radiating from center -->
  <g opacity="0.18" stroke="#F48FB1" stroke-width="1.5" fill="none" transform="translate(150, 110)">
    <circle cx="0" cy="0" r="15" />
    <line x1="0" y1="-20" x2="0" y2="-65" />
    <line x1="14" y1="-14" x2="46" y2="-46" />
    <line x1="20" y1="0" x2="65" y2="0" />
    <line x1="14" y1="14" x2="46" y2="46" />
    <line x1="0" y1="20" x2="0" y2="65" />
    <line x1="-14" y1="14" x2="-46" y2="46" />
    <line x1="-20" y1="0" x2="-65" y2="0" />
    <line x1="-14" y1="-14" x2="-46" y2="-46" />
    <line x1="10" y1="-17" x2="33" y2="-56" />
    <line x1="17" y1="-10" x2="56" y2="-33" />
    <line x1="17" y1="10" x2="56" y2="33" />
    <line x1="10" y1="17" x2="33" y2="56" />
    <line x1="-10" y1="17" x2="-33" y2="56" />
    <line x1="-17" y1="10" x2="-56" y2="33" />
    <line x1="-17" y1="-10" x2="-56" y2="-33" />
    <line x1="-10" y1="-17" x2="-33" y2="-56" />
  </g>
  <rect x="12" y="12" width="276" height="426" fill="none" stroke="#CE93D8" stroke-width="1.5" rx="4" ry="4" opacity="0.7" />
  <rect x="18" y="18" width="264" height="414" fill="none" stroke="#F48FB1" stroke-width="0.6" rx="3" ry="3" opacity="0.4" />
  <line x1="36" y1="190" x2="264" y2="190" stroke="#F48FB1" stroke-width="0.8" opacity="0.5" />
  <text x="150" y="210" text-anchor="middle" font-family="Georgia, 'Times New Roman', serif" font-size="26" font-weight="bold" fill="white" letter-spacing="0.5"><tspan x="150" dy="0">Autobiography</tspan><tspan x="150" dy="32">of a Yogi</tspan></text>
  <line x1="36" y1="260" x2="264" y2="260" stroke="#F48FB1" stroke-width="0.8" opacity="0.5" />
  <text x="150" y="282" text-anchor="middle" font-family="Arial, Helvetica, sans-serif" font-size="15" fill="#F48FB1" letter-spacing="0.3"><tspan x="150" dy="0">Paramhansa</tspan><tspan x="150" dy="20">Yogananda</tspan></text>
  <!-- Headphone icon -->
  <g transform="translate(35, 395) scale(0.7)" opacity="0.4" fill="white">
    <path d="M12 3C6.48 3 2 7.48 2 13v4c0 1.1.9 2 2 2h2v-7H4.06C4.56 8.07 7.92 5 12 5s7.44 3.07 7.94 7H18v7h2c1.1 0 2-.9 2-2v-4c0-5.52-4.48-10-10-10z"/>
    <rect x="3" y="13" width="3" height="6" rx="1"/>
    <rect x="18" y="13" width="3" height="6" rx="1"/>
  </g>
  <rect x="90" y="410" width="120" height="22" rx="11" ry="11" fill="white" opacity="0.15" />
  <text x="150" y="425" text-anchor="middle" font-family="Arial, Helvetica, sans-serif" font-size="11" fill="white" opacity="0.9" letter-spacing="1">AUDIOBOOK</text>
  <circle cx="30" cy="30" r="3" fill="#F48FB1" opacity="0.5" />
  <circle cx="270" cy="30" r="3" fill="#F48FB1" opacity="0.5" />
  <circle cx="30" cy="420" r="3" fill="#F48FB1" opacity="0.5" />
  <circle cx="270" cy="420" r="3" fill="#F48FB1" opacity="0.5" />
</svg>