<?xml version="1.0" encoding="UTF-8"?>
<svg xmlns="http://www.w3.org/2000/svg" viewBox="0 0 300 450" width="300" height="450">
  <defs>
    <linearGradient id="grad_meditations" x1="0%" y1="0%" x2="100%" y2="100%">
      <stop offset="0%"   stop-color="#37474F" />
      <stop offset="100%" stop-color="#263238" />
    </linearGradient>
  </defs>
  <rect width="300" height="450" fill="url(#grad_meditations)" rx="6" ry="6" />
  <rect width="300" height="80" fill="white" opacity="0.06" rx="6" ry="6" />
  <!-- Greek column outline -->
  <g opacity="0.18" stroke="#90A4AE" stroke-width="1.5" fill="none" transform="translate(150, 110)">
    <!-- Capital (top) -->
    <rect x="-30" y="-65" width="60" height="8" rx="2" />
    <rect x="-25" y="-57" width="50" height="5" rx="1" />
    <!-- Shaft with flutes -->
    <line x1="-20" y1="-52" x2="-18" y2="50" />
    <line x1="20" y1="-52" x2="18" y2="50" />
    <line x1="-10" y1="-52" x2="-9" y2="50" />
    <line x1="10" y1="-52" x2="9" y2="50" />
    <line x1="0" y1="-52" x2="0" y2="50" />
    <!-- Base -->
    <rect x="-25" y="50" width="50" height="5" rx="1" />
    <rect x="-30" y="55" width="60" height="8" rx="2" />
  </g>
  <rect x="12" y="12" width="276" height="426" fill="none" stroke="#78909C" stroke-width="1.5" rx="4" ry="4" opacity="0.7" />
  <rect x="18" y="18" width="264" height="414" fill="none" stroke="#90A4AE" stroke-width="0.6" rx="3" ry="3" opacity="0.4" />
  <line x1="36" y1="190" x2="264" y2="190" stroke="#90A4AE" stroke-width="0.8" opacity="0.5" />
  <text x="150" y="220" text-anchor="middle" font-family="Georgia, 'Times New Roman', serif" font-size="26" font-weight="bold" fill="white" letter-spacing="0.5"><tspan x="150" dy="0">Meditations</tspan></text>
  <line x1="36" y1="246" x2="264" y2="246" stroke="#90A4AE" stroke-width="0.8" opacity="0.5" />
  <text x="150" y="270" text-anchor="middle" font-family="Arial, Helvetica, sans-serif" font-size="15" fill="#90A4AE" letter-spacing="0.3"><tspan x="150" dy="0">Marcus Aurelius</tspan></text>
  <!-- Headphone icon -->
  <g transform="translate(35, 395) scale(0.7)" opacity="0.4" fill="white">
    <path d="M12 3C6.48 3 2 7.48 2 13v4c0 1.1.9 2 2 2h2v-7H4.06C4.56 8.07 7.92 5 12 5s7.44 3.07 7.94 7H18v7h2c1.1 0 2-.9 2-2v-4c0-5.52-4.48-10-10-10z"/>
    <rect x="3" y="13" width="3" height="6" rx="1"/>
    <rect x="18" y="13" width="3" height="6" rx="1"/>
  </g>
  <rect x="90" y="410" width="120" height="22" rx="11" ry="11" fill="white" opacity="0.15" />
  <text x="150" y="425" text-anchor="middle" font-family="Arial, Helvetica, sans-serif" font-size="11" fill="white" opacity="0.9" letter-spacing="1">AUDIOBOOK</text>
  <circle cx="30" cy="30" r="3" fill="#90A4AE" opacity="0.5" />
  <circle cx="270" cy="30" r="3" fill="#90A4AE" opacity="0.5" />
  <circle cx="30" cy="420" r="3" fill="#90A4AE" opacity="0.5" />
  <circle cx="270" cy="420" r="3" fill="#90A4AE" opacity="0.5" />
</svg>