<?xml version="1.0" encoding="UTF-8"?>
<svg xmlns="http://www.w3.org/2000/svg" viewBox="0 0 300 450" width="300" height="450">
  <defs>
    <linearGradient id="grad_sadhana" x1="0%" y1="0%" x2="100%" y2="100%">
      <stop offset="0%"   stop-color="#004D40" />
      <stop offset="100%" stop-color="#00838F" />
    </linearGradient>
  </defs>
  <rect width="300" height="450" fill="url(#grad_sadhana)" rx="6" ry="6" />
  <rect width="300" height="80" fill="white" opacity="0.06" rx="6" ry="6" />
  <!-- Lotus-like petals -->
  <g opacity="0.18" stroke="#80CBC4" stroke-width="1.5" fill="none" transform="translate(150, 110)">
    <ellipse cx="0" cy="-30" rx="12" ry="30" />
    <ellipse cx="0" cy="-30" rx="12" ry="30" transform="rotate(45)" />
    <ellipse cx="0" cy="-30" rx="12" ry="30" transform="rotate(90)" />
    <ellipse cx="0" cy="-30" rx="12" ry="30" transform="rotate(135)" />
    <ellipse cx="0" cy="-30" rx="12" ry="30" transform="rotate(180)" />
    <ellipse cx="0" cy="-30" rx="12" ry="30" transform="rotate(225)" />
    <ellipse cx="0" cy="-30" rx="12" ry="30" transform="rotate(270)" />
    <ellipse cx="0" cy="-30" rx="12" ry="30" transform="rotate(315)" />
    <circle cx="0" cy="0" r="10" />
  </g>
  <rect x="12" y="12" width="276" height="426" fill="none" stroke="#4DB6AC" stroke-width="1.5" rx="4" ry="4" opacity="0.7" />
  <rect x="18" y="18" width="264" height="414" fill="none" stroke="#80CBC4" stroke-width="0.6" rx="3" ry="3" opacity="0.4" />
  <line x1="36" y1="190" x2="264" y2="190" stroke="#80CBC4" stroke-width="0.8" opacity="0.5" />
  <text x="150" y="220" text-anchor="middle" font-family="Georgia, 'Times New Roman', serif" font-size="26" font-weight="bold" fill="white" letter-spacing="0.5"><tspan x="150" dy="0">Sadhana</tspan></text>
  <line x1="36" y1="246" x2="264" y2="246" stroke="#80CBC4" stroke-width="0.8" opacity="0.5" />
  <text x="150" y="270" text-anchor="middle" font-family="Arial, Helvetica, sans-serif" font-size="15" fill="#80CBC4" letter-spacing="0.3"><tspan x="150" dy="0">Rabindranath</tspan><tspan x="150" dy="20">Tagore</tspan></text>
  <!-- Headphone icon -->
  <g transform="translate(35, 395) scale(0.7)" opacity="0.4" fill="white">
    <path d="M12 3C6.48 3 2 7.48 2 13v4c0 1.1.9 2 2 2h2v-7H4.06C4.56 8.07 7.92 5 12 5s7.44 3.07 7.94 7H18v7h2c1.1 0 2-.9 2-2v-4c0-5.52-4.48-10-10-10z"/>
    <rect x="3" y="13" width="3" height="6" rx="1"/>
    <rect x="18" y="13" width="3" height="6" rx="1"/>
  </g>
  <rect x="90" y="410" width="120" height="22" rx="11" ry="11" fill="white" opacity="0.15" />
  <text x="150" y="425" text-anchor="middle" font-family="Arial, Helvetica, sans-serif" font-size="11" fill="white" opacity="0.9" letter-spacing="1">AUDIOBOOK</text>
  <circle cx="30" cy="30" r="3" fill="#80CBC4" opacity="0.5" />
  <circle cx="270" cy="30" r="3" fill="#80CBC4" opacity="0.5" />
  <circle cx="30" cy="420" r="3" fill="#80CBC4" opacity="0.5" />
  <circle cx="270" cy="420" r="3" fill="#80CBC4" opacity="0.5" />
</svg>