<?xml version="1.0" encoding="UTF-8"?>
<svg xmlns="http://www.w3.org/2000/svg" viewBox="0 0 300 450" width="300" height="450">
  <defs>
    <linearGradient id="grad_siddhartha" x1="0%" y1="0%" x2="100%" y2="100%">
      <stop offset="0%"   stop-color="#3E2723" />
      <stop offset="100%" stop-color="#4E342E" />
    </linearGradient>
  </defs>
  <rect width="300" height="450" fill="url(#grad_siddhartha)" rx="6" ry="6" />
  <rect width="300" height="80" fill="white" opacity="0.06" rx="6" ry="6" />
  <!-- River waves flowing -->
  <g opacity="0.18" stroke="#BCAAA4" stroke-width="1.5" fill="none">
    <path d="M60,70 Q90,55 120,70 Q150,85 180,70 Q210,55 240,70" />
    <path d="M50,90 Q80,75 110,90 Q140,105 170,90 Q200,75 230,90 Q250,105 260,90" />
    <path d="M60,110 Q90,95 120,110 Q150,125 180,110 Q210,95 240,110" />
    <path d="M50,130 Q80,115 110,130 Q140,145 170,130 Q200,115 230,130 Q250,145 260,130" />
    <path d="M60,150 Q90,135 120,150 Q150,165 180,150 Q210,135 240,150" />
    <path d="M50,170 Q80,155 110,170 Q140,185 170,170 Q200,155 230,170 Q250,185 260,170" />
  </g>
  <rect x="12" y="12" width="276" height="426" fill="none" stroke="#8D6E63" stroke-width="1.5" rx="4" ry="4" opacity="0.7" />
  <rect x="18" y="18" width="264" height="414" fill="none" stroke="#BCAAA4" stroke-width="0.6" rx="3" ry="3" opacity="0.4" />
  <line x1="36" y1="190" x2="264" y2="190" stroke="#BCAAA4" stroke-width="0.8" opacity="0.5" />
  <text x="150" y="220" text-anchor="middle" font-family="Georgia, 'Times New Roman', serif" font-size="26" font-weight="bold" fill="white" letter-spacing="0.5"><tspan x="150" dy="0">Siddhartha</tspan></text>
  <line x1="36" y1="246" x2="264" y2="246" stroke="#BCAAA4" stroke-width="0.8" opacity="0.5" />
  <text x="150" y="270" text-anchor="middle" font-family="Arial, Helvetica, sans-serif" font-size="15" fill="#BCAAA4" letter-spacing="0.3"><tspan x="150" dy="0">Hermann Hesse</tspan></text>
  <!-- Headphone icon -->
  <g transform="translate(35, 395) scale(0.7)" opacity="0.4" fill="white">
    <path d="M12 3C6.48 3 2 7.48 2 13v4c0 1.1.9 2 2 2h2v-7H4.06C4.56 8.07 7.92 5 12 5s7.44 3.07 7.94 7H18v7h2c1.1 0 2-.9 2-2v-4c0-5.52-4.48-10-10-10z"/>
    <rect x="3" y="13" width="3" height="6" rx="1"/>
    <rect x="18" y="13" width="3" height="6" rx="1"/>
  </g>
  <rect x="90" y="410" width="120" height="22" rx="11" ry="11" fill="white" opacity="0.15" />
  <text x="150" y="425" text-anchor="middle" font-family="Arial, Helvetica, sans-serif" font-size="11" fill="white" opacity="0.9" letter-spacing="1">AUDIOBOOK</text>
  <circle cx="30" cy="30" r="3" fill="#BCAAA4" opacity="0.5" />
  <circle cx="270" cy="30" r="3" fill="#BCAAA4" opacity="0.5" />
  <circle cx="30" cy="420" r="3" fill="#BCAAA4" opacity="0.5" />
  <circle cx="270" cy="420" r="3" fill="#BCAAA4" opacity="0.5" />
</svg>