<?xml version="1.0" encoding="UTF-8"?>
<svg xmlns="http://www.w3.org/2000/svg" viewBox="0 0 300 450" width="300" height="450">
  <defs>
    <linearGradient id="grad_manuscript-gitanjali" x1="0%" y1="0%" x2="100%" y2="100%">
      <stop offset="0%" stop-color="#1E3A8A" />
      <stop offset="100%" stop-color="#2563EB" />
    </linearGradient>
  </defs>
  <rect width="300" height="450" fill="url(#grad_manuscript-gitanjali)" rx="6" ry="6" />
  <rect width="300" height="80" fill="white" opacity="0.06" rx="6" ry="6" />
  <g opacity="0.18" stroke="#93C5FD" stroke-width="1.5" fill="none"><path d="M120,60 Q150,40 180,60 L180,160 Q150,140 120,160 Z" /><line x1="130" y1="80" x2="170" y2="80" /><line x1="130" y1="100" x2="170" y2="100" /><line x1="130" y1="120" x2="170" y2="120" /></g>
  <rect x="12" y="12" width="276" height="426" fill="none" stroke="#93C5FD" stroke-width="1.5" rx="4" ry="4" opacity="0.7" />
  <rect x="18" y="18" width="264" height="414" fill="none" stroke="#93C5FD" stroke-width="0.6" rx="3" ry="3" opacity="0.4" />
  <line x1="36" y1="200" x2="264" y2="200" stroke="#93C5FD" stroke-width="0.8" opacity="0.5" />
  <text x="150" y="230" text-anchor="middle" font-family="Georgia, 'Times New Roman', serif" font-size="22" font-weight="bold" fill="white" letter-spacing="0.5">Gitanjali Manuscript</text>
  <line x1="36" y1="256" x2="264" y2="256" stroke="#93C5FD" stroke-width="0.8" opacity="0.5" />
  <rect x="70" y="400" width="160" height="24" rx="12" ry="12" fill="white" opacity="0.15" />
  <text x="150" y="416" text-anchor="middle" font-family="Arial, Helvetica, sans-serif" font-size="11" fill="white" opacity="0.9" letter-spacing="1.5">MODERN · 1947 CE</text>
  <circle cx="30" cy="30" r="3" fill="#93C5FD" opacity="0.5" />
  <circle cx="270" cy="30" r="3" fill="#93C5FD" opacity="0.5" />
  <circle cx="30" cy="420" r="3" fill="#93C5FD" opacity="0.5" />
  <circle cx="270" cy="420" r="3" fill="#93C5FD" opacity="0.5" />
</svg>
