<?xml version="1.0" encoding="UTF-8"?>
<svg xmlns="http://www.w3.org/2000/svg" viewBox="0 0 300 450" width="300" height="450">
  <defs>
    <linearGradient id="grad_manuscript-arthashastra" x1="0%" y1="0%" x2="100%" y2="100%">
      <stop offset="0%" stop-color="#4B5563" />
      <stop offset="100%" stop-color="#6B7280" />
    </linearGradient>
  </defs>
  <rect width="300" height="450" fill="url(#grad_manuscript-arthashastra)" rx="6" ry="6" />
  <rect width="300" height="80" fill="white" opacity="0.06" rx="6" ry="6" />
  <g opacity="0.18" stroke="#D1D5DB" stroke-width="1.5" fill="none"><rect x="110" y="60" width="80" height="120" rx="4" /><line x1="120" y1="80" x2="180" y2="80" /><line x1="120" y1="100" x2="180" y2="100" /><line x1="120" y1="120" x2="180" y2="120" /><line x1="120" y1="140" x2="180" y2="140" /></g>
  <rect x="12" y="12" width="276" height="426" fill="none" stroke="#D1D5DB" stroke-width="1.5" rx="4" ry="4" opacity="0.7" />
  <rect x="18" y="18" width="264" height="414" fill="none" stroke="#D1D5DB" stroke-width="0.6" rx="3" ry="3" opacity="0.4" />
  <line x1="36" y1="200" x2="264" y2="200" stroke="#D1D5DB" stroke-width="0.8" opacity="0.5" />
  <text x="150" y="230" text-anchor="middle" font-family="Georgia, 'Times New Roman', serif" font-size="22" font-weight="bold" fill="white" letter-spacing="0.5">Arthashastra</text>
  <line x1="36" y1="256" x2="264" y2="256" stroke="#D1D5DB" stroke-width="0.8" opacity="0.5" />
  <rect x="70" y="400" width="160" height="24" rx="12" ry="12" fill="white" opacity="0.15" />
  <text x="150" y="416" text-anchor="middle" font-family="Arial, Helvetica, sans-serif" font-size="11" fill="white" opacity="0.9" letter-spacing="1.5">MAURYAN · 300 BCE</text>
  <circle cx="30" cy="30" r="3" fill="#D1D5DB" opacity="0.5" />
  <circle cx="270" cy="30" r="3" fill="#D1D5DB" opacity="0.5" />
  <circle cx="30" cy="420" r="3" fill="#D1D5DB" opacity="0.5" />
  <circle cx="270" cy="420" r="3" fill="#D1D5DB" opacity="0.5" />
</svg>
