<?xml version="1.0" encoding="UTF-8"?>
<svg xmlns="http://www.w3.org/2000/svg" viewBox="0 0 300 450" width="300" height="450">
  <defs>
    <linearGradient id="grad_gandhi" x1="0%" y1="0%" x2="100%" y2="100%">
      <stop offset="0%" stop-color="#1E3A8A" />
      <stop offset="100%" stop-color="#1E40AF" />
    </linearGradient>
  </defs>
  <rect width="300" height="450" fill="url(#grad_gandhi)" rx="6" ry="6" />
  <rect width="300" height="80" fill="white" opacity="0.06" rx="6" ry="6" />
  <g opacity="0.18" stroke="#93C5FD" stroke-width="1.5" fill="none"><circle cx="150" cy="100" r="45" /><line x1="150" y1="55" x2="150" y2="145" /><line x1="105" y1="100" x2="195" y2="100" /><circle cx="150" cy="100" r="15" /></g>
  <rect x="12" y="12" width="276" height="426" fill="none" stroke="#93C5FD" stroke-width="1.5" rx="4" ry="4" opacity="0.7" />
  <rect x="18" y="18" width="264" height="414" fill="none" stroke="#93C5FD" stroke-width="0.6" rx="3" ry="3" opacity="0.4" />
  <line x1="36" y1="200" x2="264" y2="200" stroke="#93C5FD" stroke-width="0.8" opacity="0.5" />
  <text x="150" y="222" text-anchor="middle" font-family="Georgia, 'Times New Roman', serif" font-size="19" font-weight="bold" fill="white" letter-spacing="0.5"><tspan x="150" dy="0">Gandhi&apos;s Collected</tspan><tspan x="150" dy="24">Works</tspan></text>
  <line x1="36" y1="270" x2="264" y2="270" stroke="#93C5FD" stroke-width="0.8" opacity="0.5" />
  <rect x="70" y="400" width="160" height="24" rx="12" ry="12" fill="white" opacity="0.15" />
  <text x="150" y="416" text-anchor="middle" font-family="Arial, Helvetica, sans-serif" font-size="11" fill="white" opacity="0.9" letter-spacing="1.5">MODERN · 1947 CE</text>
  <circle cx="30" cy="30" r="3" fill="#93C5FD" opacity="0.5" />
  <circle cx="270" cy="30" r="3" fill="#93C5FD" opacity="0.5" />
  <circle cx="30" cy="420" r="3" fill="#93C5FD" opacity="0.5" />
  <circle cx="270" cy="420" r="3" fill="#93C5FD" opacity="0.5" />
</svg>
