<?xml version="1.0" encoding="UTF-8"?>
<svg xmlns="http://www.w3.org/2000/svg" viewBox="0 0 300 450" width="300" height="450">
  <defs>
    <linearGradient id="grad_ain" x1="0%" y1="0%" x2="100%" y2="100%">
      <stop offset="0%" stop-color="#064E3B" />
      <stop offset="100%" stop-color="#059669" />
    </linearGradient>
  </defs>
  <rect width="300" height="450" fill="url(#grad_ain)" rx="6" ry="6" />
  <rect width="300" height="80" fill="white" opacity="0.06" rx="6" ry="6" />
  <g opacity="0.18" stroke="#6EE7B7" stroke-width="1.5" fill="none"><rect x="110" y="55" width="80" height="110" rx="4" /><line x1="120" y1="75" x2="180" y2="75" /><line x1="120" y1="95" x2="180" y2="95" /><line x1="120" y1="115" x2="180" y2="115" /><line x1="120" y1="135" x2="180" y2="135" /><circle cx="150" cy="55" r="10" /></g>
  <rect x="12" y="12" width="276" height="426" fill="none" stroke="#6EE7B7" stroke-width="1.5" rx="4" ry="4" opacity="0.7" />
  <rect x="18" y="18" width="264" height="414" fill="none" stroke="#6EE7B7" stroke-width="0.6" rx="3" ry="3" opacity="0.4" />
  <line x1="36" y1="200" x2="264" y2="200" stroke="#6EE7B7" stroke-width="0.8" opacity="0.5" />
  <text x="150" y="230" text-anchor="middle" font-family="Georgia, 'Times New Roman', serif" font-size="22" font-weight="bold" fill="white" letter-spacing="0.5">Ain-i-Akbari</text>
  <line x1="36" y1="256" x2="264" y2="256" stroke="#6EE7B7" stroke-width="0.8" opacity="0.5" />
  <rect x="70" y="400" width="160" height="24" rx="12" ry="12" fill="white" opacity="0.15" />
  <text x="150" y="416" text-anchor="middle" font-family="Arial, Helvetica, sans-serif" font-size="11" fill="white" opacity="0.9" letter-spacing="1.5">MUGHAL · 1526 CE</text>
  <circle cx="30" cy="30" r="3" fill="#6EE7B7" opacity="0.5" />
  <circle cx="270" cy="30" r="3" fill="#6EE7B7" opacity="0.5" />
  <circle cx="30" cy="420" r="3" fill="#6EE7B7" opacity="0.5" />
  <circle cx="270" cy="420" r="3" fill="#6EE7B7" opacity="0.5" />
</svg>
